<?xml version="1.0" encoding="UTF-8"?>
<svg width="233px" height="129px" viewBox="0 0 233 129" version="1.1" xmlns="http://www.w3.org/2000/svg" xmlns:xlink="http://www.w3.org/1999/xlink">
    <!-- Generator: Sketch 53.1 (72631) - https://sketchapp.com -->
    <title>logo</title>
    <desc>Created with Sketch.</desc>
    <g id="Page-1" stroke="none" stroke-width="1" fill="none" fill-rule="evenodd">
        <g id="Desktop-HD" transform="translate(-153.000000, -123.000000)" fill="#000000">
            <g id="logo" transform="translate(153.000000, 123.000000)">
                <rect id="Rectangle" x="0" y="0" width="45" height="109"></rect>
                <rect id="Rectangle" transform="translate(68.500000, 86.500000) scale(1, -1) rotate(-90.000000) translate(-68.500000, -86.500000) " x="46" y="70" width="45" height="33"></rect>
                <path d="M107.742188,87.0859375 C107.742188,91.4088758 108.451816,94.6770723 109.871094,96.890625 C111.290372,99.1041777 113.601546,100.210938 116.804688,100.210938 C119.981787,100.210938 122.26692,99.1106881 123.660156,96.9101562 C125.053392,94.7096244 125.75,91.4349176 125.75,87.0859375 C125.75,82.7629992 125.046882,79.5208441 123.640625,77.359375 C122.234368,75.1979059 119.929704,74.1171875 116.726562,74.1171875 C113.549463,74.1171875 111.25782,75.1913955 109.851562,77.3398438 C108.445305,79.488292 107.742188,82.7369574 107.742188,87.0859375 Z M137.9375,87.0859375 C137.9375,94.195348 136.062519,99.7551883 132.3125,103.765625 C128.562481,107.776062 123.341179,109.78125 116.648438,109.78125 C112.455708,109.78125 108.757829,108.86329 105.554688,107.027344 C102.351546,105.191397 99.8906336,102.554705 98.171875,99.1171875 C96.4531164,95.6796703 95.59375,91.6692938 95.59375,87.0859375 C95.59375,79.9504852 97.4557105,74.4036656 101.179688,70.4453125 C104.903664,66.4869594 110.137987,64.5078125 116.882812,64.5078125 C121.075542,64.5078125 124.773421,65.4192617 127.976562,67.2421875 C131.179704,69.0651133 133.640616,71.6822746 135.359375,75.09375 C137.078134,78.5052254 137.9375,82.5025812 137.9375,87.0859375 Z M185.789062,65.328125 L185.789062,71.3828125 L178.953125,73.140625 C180.203131,75.0937598 180.828125,77.2812379 180.828125,79.703125 C180.828125,84.3906484 179.194027,88.0429557 175.925781,90.6601562 C172.657536,93.2773568 168.119821,94.5859375 162.3125,94.5859375 L160.164062,94.46875 L158.40625,94.2734375 C157.182286,95.2109422 156.570312,96.2525984 156.570312,97.3984375 C156.570312,99.1171961 158.757791,99.9765625 163.132812,99.9765625 L170.554688,99.9765625 C175.346378,99.9765625 178.998685,101.005198 181.511719,103.0625 C184.024752,105.119802 185.28125,108.140605 185.28125,112.125 C185.28125,117.229192 183.152365,121.187486 178.894531,124 C174.636697,126.812514 168.523477,128.21875 160.554688,128.21875 C154.460907,128.21875 149.806006,127.157563 146.589844,125.035156 C143.373682,122.91275 141.765625,119.937519 141.765625,116.109375 C141.765625,113.479154 142.585929,111.278655 144.226562,109.507812 C145.867196,107.73697 148.276026,106.473962 151.453125,105.71875 C150.229161,105.197914 149.161463,104.345058 148.25,103.160156 C147.338537,101.975254 146.882812,100.718757 146.882812,99.390625 C146.882812,97.72395 147.364579,96.3372451 148.328125,95.2304688 C149.291671,94.1236924 150.684887,93.0364637 152.507812,91.96875 C150.216134,90.9791617 148.399746,89.3906359 147.058594,87.203125 C145.717441,85.0156141 145.046875,82.4375148 145.046875,79.46875 C145.046875,74.7031012 146.596339,71.0182422 149.695312,68.4140625 C152.794286,65.8098828 157.221325,64.5078125 162.976562,64.5078125 C164.200527,64.5078125 165.652335,64.6184885 167.332031,64.8398438 C169.011727,65.061199 170.085935,65.2239578 170.554688,65.328125 L185.789062,65.328125 Z M152.078125,115.171875 C152.078125,116.812508 152.865878,118.101558 154.441406,119.039062 C156.016935,119.976567 158.223944,120.445312 161.0625,120.445312 C165.333355,120.445312 168.679675,119.859381 171.101562,118.6875 C173.52345,117.515619 174.734375,115.914073 174.734375,113.882812 C174.734375,112.242179 174.018236,111.109378 172.585938,110.484375 C171.153639,109.859372 168.940119,109.546875 165.945312,109.546875 L159.773438,109.546875 C157.585927,109.546875 155.756518,110.061193 154.285156,111.089844 C152.813795,112.118495 152.078125,113.479158 152.078125,115.171875 Z M156.414062,79.625 C156.414062,81.9948035 156.954422,83.8697848 158.035156,85.25 C159.115891,86.6302152 160.76301,87.3203125 162.976562,87.3203125 C165.216157,87.3203125 166.856766,86.6302152 167.898438,85.25 C168.940109,83.8697848 169.460938,81.9948035 169.460938,79.625 C169.460938,74.364557 167.299501,71.734375 162.976562,71.734375 C158.601541,71.734375 156.414062,74.364557 156.414062,79.625 Z M202.46875,87.0859375 C202.46875,91.4088758 203.178378,94.6770723 204.597656,96.890625 C206.016934,99.1041777 208.328109,100.210938 211.53125,100.210938 C214.708349,100.210938 216.993483,99.1106881 218.386719,96.9101562 C219.779955,94.7096244 220.476562,91.4349176 220.476562,87.0859375 C220.476562,82.7629992 219.773445,79.5208441 218.367188,77.359375 C216.96093,75.1979059 214.656266,74.1171875 211.453125,74.1171875 C208.276026,74.1171875 205.984382,75.1913955 204.578125,77.3398438 C203.171868,79.488292 202.46875,82.7369574 202.46875,87.0859375 Z M232.664062,87.0859375 C232.664062,94.195348 230.789081,99.7551883 227.039062,103.765625 C223.289044,107.776062 218.067742,109.78125 211.375,109.78125 C207.182271,109.78125 203.484391,108.86329 200.28125,107.027344 C197.078109,105.191397 194.617196,102.554705 192.898438,99.1171875 C191.179679,95.6796703 190.320312,91.6692938 190.320312,87.0859375 C190.320312,79.9504852 192.182273,74.4036656 195.90625,70.4453125 C199.630227,66.4869594 204.86455,64.5078125 211.609375,64.5078125 C215.802104,64.5078125 219.499984,65.4192617 222.703125,67.2421875 C225.906266,69.0651133 228.367179,71.6822746 230.085938,75.09375 C231.804696,78.5052254 232.664062,82.5025812 232.664062,87.0859375 Z" id="ogo" fill-rule="nonzero"></path>
            </g>
        </g>
    </g>
</svg>